<?xml version="1.0" standalone="no"?>
<!DOCTYPE svg PUBLIC "-//W3C//DTD SVG 20010904//EN"
 "http://www.w3.org/TR/2001/REC-SVG-20010904/DTD/svg10.dtd">
<svg version="1.0" xmlns="http://www.w3.org/2000/svg"
 width="500.000000pt" height="500.000000pt" viewBox="0 0 500.000000 500.000000"
 preserveAspectRatio="xMidYMid meet">
<metadata>
Created by potrace 1.11, written by Peter Selinger 2001-2013
</metadata>
<g transform="translate(0.000000,500.000000) scale(0.100000,-0.100000)"
fill="#000000" stroke="none">
<path d="M200 4991 c-69 -21 -140 -82 -176 -151 -18 -34 -19 -114 -21 -2330
l-2 -2295 23 -50 c28 -59 63 -97 126 -133 l45 -27 2305 0 2305 0 47 28 c65 38
105 83 128 145 20 52 20 80 20 2322 0 2258 0 2270 -20 2324 -22 57 -78 118
-141 153 -33 17 -123 18 -2324 20 -1259 1 -2301 -2 -2315 -6z m2195 -1891 l0
-105 -290 -1 c-160 -1 -292 -2 -295 -3 -4 -1 -5 -274 -1 -291 0 -3 122 -5 271
-4 l270 1 -3 -106 -2 -106 -270 -1 -270 0 0 -172 0 -172 311 0 311 0 -1 -107
-1 -108 -437 0 -438 0 0 642 0 643 422 -2 423 -3 0 -105z m1116 93 c4 -128 2
-193 -6 -196 -5 -2 -141 -3 -302 -2 -253 0 -292 -2 -295 -15 -2 -8 -4 -80 -3
-160 l0 -145 220 -2 c121 -1 243 -2 270 -2 l51 -1 -1 -102 0 -103 -270 -5
-270 -5 0 -260 c1 -143 -3 -262 -7 -265 -4 -3 -60 -5 -125 -5 l-118 0 -3 643
-2 642 430 0 c403 0 430 -1 431 -17z"/>
</g>
</svg>
